<mxfile host="app.diagrams.net" modified="2024-02-22T09:02:42.233Z" agent="Mozilla/5.0 (Windows NT 10.0; Win64; x64) AppleWebKit/537.36 (KHTML, like Gecko) Chrome/121.0.0.0 Safari/537.36" etag="BJAADdumhUf6AF8UBz95" version="23.0.2" type="github">
  <diagram name="Sida-1" id="ydKVtQEPHB9de50PJjMJ">
    <mxGraphModel dx="756" dy="432" grid="1" gridSize="10" guides="1" tooltips="1" connect="1" arrows="1" fold="1" page="1" pageScale="1" pageWidth="827" pageHeight="1169" math="0" shadow="0">
      <root>
        <mxCell id="0" />
        <mxCell id="1" parent="0" />
        <mxCell id="ZMfJjPU6kT4Z6zHWJhPS-2" value="SQL" style="shape=datastore;whiteSpace=wrap;html=1;fillColor=#dae8fc;strokeColor=#6c8ebf;" vertex="1" parent="1">
          <mxGeometry x="675" y="160" width="70" height="100" as="geometry" />
        </mxCell>
        <mxCell id="ZMfJjPU6kT4Z6zHWJhPS-3" value="Auth Service" style="html=1;whiteSpace=wrap;" vertex="1" parent="1">
          <mxGeometry x="400" y="185" width="110" height="50" as="geometry" />
        </mxCell>
        <mxCell id="ZMfJjPU6kT4Z6zHWJhPS-4" value="API" style="html=1;whiteSpace=wrap;" vertex="1" parent="1">
          <mxGeometry x="190" y="250" width="110" height="50" as="geometry" />
        </mxCell>
        <mxCell id="ZMfJjPU6kT4Z6zHWJhPS-5" value="Room Service" style="html=1;whiteSpace=wrap;" vertex="1" parent="1">
          <mxGeometry x="400" y="310" width="110" height="50" as="geometry" />
        </mxCell>
        <mxCell id="ZMfJjPU6kT4Z6zHWJhPS-6" value="Sensor Service" style="html=1;whiteSpace=wrap;" vertex="1" parent="1">
          <mxGeometry x="400" y="250" width="110" height="50" as="geometry" />
        </mxCell>
        <mxCell id="ZMfJjPU6kT4Z6zHWJhPS-7" value="Time Series" style="shape=datastore;whiteSpace=wrap;html=1;fillColor=#dae8fc;strokeColor=#6c8ebf;" vertex="1" parent="1">
          <mxGeometry x="675" y="300" width="70" height="100" as="geometry" />
        </mxCell>
        <mxCell id="ZMfJjPU6kT4Z6zHWJhPS-8" value="" style="endArrow=classic;html=1;rounded=0;exitX=1;exitY=0.25;exitDx=0;exitDy=0;entryX=0;entryY=0.5;entryDx=0;entryDy=0;startArrow=block;startFill=0;" edge="1" parent="1" source="ZMfJjPU6kT4Z6zHWJhPS-4" target="ZMfJjPU6kT4Z6zHWJhPS-3">
          <mxGeometry width="50" height="50" relative="1" as="geometry">
            <mxPoint x="350" y="180" as="sourcePoint" />
            <mxPoint x="510" y="230" as="targetPoint" />
          </mxGeometry>
        </mxCell>
        <mxCell id="ZMfJjPU6kT4Z6zHWJhPS-9" value="" style="endArrow=classic;html=1;rounded=0;exitX=1;exitY=0.5;exitDx=0;exitDy=0;entryX=0;entryY=0.5;entryDx=0;entryDy=0;startArrow=block;startFill=0;" edge="1" parent="1" source="ZMfJjPU6kT4Z6zHWJhPS-4" target="ZMfJjPU6kT4Z6zHWJhPS-6">
          <mxGeometry width="50" height="50" relative="1" as="geometry">
            <mxPoint x="310" y="273" as="sourcePoint" />
            <mxPoint x="410" y="220" as="targetPoint" />
          </mxGeometry>
        </mxCell>
        <mxCell id="ZMfJjPU6kT4Z6zHWJhPS-12" value="" style="endArrow=classic;html=1;rounded=0;exitX=1;exitY=0.75;exitDx=0;exitDy=0;entryX=0;entryY=0.5;entryDx=0;entryDy=0;startArrow=block;startFill=0;" edge="1" parent="1" source="ZMfJjPU6kT4Z6zHWJhPS-4" target="ZMfJjPU6kT4Z6zHWJhPS-5">
          <mxGeometry width="50" height="50" relative="1" as="geometry">
            <mxPoint x="310" y="273" as="sourcePoint" />
            <mxPoint x="410" y="220" as="targetPoint" />
          </mxGeometry>
        </mxCell>
        <mxCell id="ZMfJjPU6kT4Z6zHWJhPS-13" value="" style="endArrow=classic;html=1;rounded=0;exitX=1;exitY=0.5;exitDx=0;exitDy=0;entryX=0;entryY=0.3;entryDx=0;entryDy=0;startArrow=block;startFill=0;" edge="1" parent="1" source="ZMfJjPU6kT4Z6zHWJhPS-3" target="ZMfJjPU6kT4Z6zHWJhPS-2">
          <mxGeometry width="50" height="50" relative="1" as="geometry">
            <mxPoint x="460" y="280" as="sourcePoint" />
            <mxPoint x="660" y="200" as="targetPoint" />
          </mxGeometry>
        </mxCell>
        <mxCell id="ZMfJjPU6kT4Z6zHWJhPS-14" value="" style="endArrow=classic;html=1;rounded=0;exitX=1;exitY=0.5;exitDx=0;exitDy=0;entryX=0;entryY=0.5;entryDx=0;entryDy=0;startArrow=block;startFill=0;" edge="1" parent="1" source="ZMfJjPU6kT4Z6zHWJhPS-6" target="ZMfJjPU6kT4Z6zHWJhPS-2">
          <mxGeometry width="50" height="50" relative="1" as="geometry">
            <mxPoint x="460" y="280" as="sourcePoint" />
            <mxPoint x="670" y="210" as="targetPoint" />
          </mxGeometry>
        </mxCell>
        <mxCell id="ZMfJjPU6kT4Z6zHWJhPS-15" value="" style="endArrow=classic;html=1;rounded=0;entryX=0;entryY=0.5;entryDx=0;entryDy=0;exitX=1;exitY=0.5;exitDx=0;exitDy=0;startArrow=block;startFill=0;" edge="1" parent="1" source="ZMfJjPU6kT4Z6zHWJhPS-5" target="ZMfJjPU6kT4Z6zHWJhPS-7">
          <mxGeometry width="50" height="50" relative="1" as="geometry">
            <mxPoint x="460" y="280" as="sourcePoint" />
            <mxPoint x="510" y="230" as="targetPoint" />
          </mxGeometry>
        </mxCell>
        <mxCell id="ZMfJjPU6kT4Z6zHWJhPS-17" value="" style="endArrow=classic;html=1;rounded=0;exitX=1;exitY=0.5;exitDx=0;exitDy=0;entryX=0;entryY=0.7;entryDx=0;entryDy=0;startArrow=block;startFill=0;" edge="1" parent="1" source="ZMfJjPU6kT4Z6zHWJhPS-5" target="ZMfJjPU6kT4Z6zHWJhPS-2">
          <mxGeometry width="50" height="50" relative="1" as="geometry">
            <mxPoint x="460" y="280" as="sourcePoint" />
            <mxPoint x="510" y="230" as="targetPoint" />
          </mxGeometry>
        </mxCell>
      </root>
    </mxGraphModel>
  </diagram>
</mxfile>
